<?xml version="1.0" standalone="no"?>
<!DOCTYPE svg PUBLIC "-//W3C//DTD SVG 20010904//EN"
 "http://www.w3.org/TR/2001/REC-SVG-20010904/DTD/svg10.dtd">
<svg version="1.0" xmlns="http://www.w3.org/2000/svg"
 width="512.000000pt" height="512.000000pt" viewBox="0 0 512.000000 512.000000"
 preserveAspectRatio="xMidYMid meet">
<metadata>
Created by potrace 1.11, written by Peter Selinger 2001-2013
</metadata>
<g transform="translate(0.000000,512.000000) scale(0.100000,-0.100000)"
fill="#000000" stroke="none">
<path d="M2286 4892 c-2 -4 9 -62 25 -127 16 -66 29 -126 29 -133 0 -8 -25 18
-56 57 -31 39 -60 71 -64 71 -20 0 -13 -21 36 -117 30 -59 52 -108 50 -110 -2
-2 -15 2 -30 8 -37 17 -41 8 -17 -43 l20 -43 -22 -6 c-15 -4 -21 -12 -20 -26
2 -20 -1 -20 -105 13 -118 38 -172 50 -172 39 0 -11 65 -88 200 -238 62 -68
71 -83 77 -120 l4 -32 -23 33 c-30 41 -52 38 -54 -9 -2 -41 -41 -89 -71 -89
-11 0 -25 -11 -31 -25 -11 -23 -16 -25 -47 -19 -27 5 -36 3 -41 -10 -9 -24
-34 -19 -78 14 -64 49 -83 40 -77 -37 3 -32 -12 -35 -65 -13 -48 21 -63 17
-64 -18 0 -8 -8 -10 -23 -7 -30 8 -50 -28 -42 -72 l5 -32 -37 15 c-23 10 -49
13 -72 9 -72 -12 -70 -11 -64 -71 l6 -55 -27 11 c-33 12 -86 13 -86 1 0 -5 7
-27 15 -50 17 -50 8 -52 -50 -10 -55 40 -68 32 -48 -27 8 -25 13 -48 10 -51
-4 -3 -22 4 -42 16 -46 27 -59 26 -72 -1 -7 -16 -6 -32 4 -55 13 -32 13 -33
-12 -33 -22 0 -25 -3 -19 -26 l7 -26 -31 16 c-35 18 -92 21 -92 6 0 -6 9 -29
21 -51 11 -23 18 -43 15 -46 -3 -3 -27 4 -53 15 -54 24 -68 18 -53 -23 10 -26
9 -27 -14 -21 -33 8 -40 -7 -21 -43 8 -17 15 -32 15 -34 0 -9 -56 -26 -83 -25
-39 1 -42 -7 -17 -43 l23 -31 -22 6 c-11 3 -30 9 -41 12 -26 7 -26 -10 1 -47
l20 -29 -29 0 c-24 0 -31 -5 -35 -27 -3 -15 -2 -36 3 -47 4 -12 3 -31 -3 -44
-8 -18 -16 -22 -35 -17 -94 23 -99 19 -52 -46 27 -39 28 -43 15 -69 -8 -15
-21 -30 -30 -34 -12 -4 -14 -10 -5 -25 16 -30 12 -40 -17 -54 -16 -6 -34 -19
-40 -28 -8 -10 -24 -16 -43 -14 -53 4 -55 -18 -5 -54 51 -36 55 -47 23 -57
-13 -3 -35 -15 -50 -26 -24 -16 -26 -22 -17 -45 12 -33 5 -53 -20 -53 -27 0
-33 -24 -10 -43 27 -24 24 -43 -10 -55 -34 -12 -62 -52 -37 -52 8 0 18 5 21
10 4 6 22 17 41 25 26 11 34 20 34 39 0 14 -4 28 -10 31 -16 10 -11 23 11 30
18 6 20 12 15 50 -7 42 -7 43 33 58 56 23 63 53 20 89 l-33 28 28 0 c19 0 29
6 33 20 4 13 14 20 29 20 26 0 48 38 38 65 -3 8 4 26 15 41 25 32 27 81 4 106
-16 18 -15 19 24 12 40 -6 41 -6 54 32 7 22 13 41 12 44 -1 3 -5 18 -9 34 l-7
29 42 -6 c50 -6 57 2 30 37 -22 28 -16 32 25 16 35 -13 43 5 17 41 -11 15 -21
30 -21 32 0 2 25 12 55 22 30 11 55 23 55 27 0 5 -8 20 -17 34 -17 26 -17 26
13 23 30 -4 31 -1 19 39 -7 23 -6 23 22 10 28 -14 103 -24 103 -14 0 3 -12 26
-26 52 -14 25 -23 48 -20 52 4 3 27 -4 51 -16 59 -29 66 -28 58 8 -5 27 -3 30
21 30 l26 0 -19 50 c-11 28 -15 52 -11 55 5 3 24 -4 44 -16 55 -32 94 -2 65
52 -9 19 -9 19 10 10 11 -6 23 -16 26 -21 8 -12 45 -13 64 -1 11 7 11 16 -2
54 l-15 45 44 -15 c25 -8 48 -12 52 -8 4 4 7 31 7 61 l0 54 40 5 c32 5 50 1
88 -20 l48 -27 -3 63 c-3 59 -2 64 17 61 11 -2 25 -5 30 -5 6 -1 10 7 10 18 0
24 7 24 59 6 37 -13 41 -12 57 7 9 12 15 34 14 51 -3 34 12 33 58 -6 33 -26
75 -30 84 -7 4 11 13 13 34 9 22 -5 34 -1 54 19 14 14 35 26 45 26 11 0 20 4
20 8 0 5 11 22 24 37 14 16 25 31 24 34 -3 31 6 28 29 -7 15 -23 30 -42 34
-42 12 0 16 34 13 93 -2 41 -9 63 -25 80 -11 12 -44 49 -72 81 -29 33 -73 82
-99 110 -25 28 -45 52 -44 53 1 2 26 -4 54 -12 29 -9 54 -16 57 -16 2 0 28 -9
57 -20 76 -27 89 -26 82 11 -6 26 -3 30 14 30 30 0 33 12 12 48 l-20 32 35
-14 c41 -18 49 -10 29 30 -9 16 -22 45 -30 64 -13 32 -13 33 1 15 70 -90 82
-80 51 43 -13 50 -21 92 -17 92 3 0 26 -38 49 -85 51 -101 64 -107 76 -41 8
42 11 41 41 -9 15 -26 30 -44 33 -40 4 3 16 36 28 73 l20 67 24 -62 c12 -35
26 -63 30 -63 5 0 23 19 42 42 53 69 62 79 86 107 22 25 21 24 -4 -34 -42 -96
-48 -114 -42 -120 3 -3 36 8 74 25 37 16 69 29 71 27 1 -2 -10 -21 -27 -43
-29 -39 -38 -64 -22 -64 5 0 46 29 92 65 46 36 85 65 86 65 2 0 -28 -42 -66
-92 -85 -113 -90 -133 -26 -108 30 11 34 -3 11 -34 -17 -22 -11 -36 13 -32 9
2 35 7 57 11 l40 7 -47 -38 c-81 -62 -67 -68 120 -50 23 3 42 3 42 1 0 -2
-162 -131 -177 -140 -2 -1 -5 -33 -8 -72 -7 -85 4 -97 44 -54 34 36 91 50 110
27 10 -11 19 -13 38 -5 28 10 48 0 58 -30 4 -13 13 -17 29 -14 26 5 46 -18 41
-50 -5 -25 14 -87 26 -87 6 0 27 11 47 25 41 28 46 24 56 -39 8 -49 12 -53 37
-38 17 11 21 9 29 -13 12 -30 32 -32 76 -4 l34 21 1 -21 c1 -12 3 -25 4 -31 1
-5 3 -16 4 -22 1 -7 15 -28 31 -47 l29 -35 51 28 51 28 -4 -29 c-3 -23 6 -63
20 -82 1 -2 21 9 43 24 22 15 43 26 45 23 3 -3 -4 -30 -14 -61 -24 -68 -14
-79 35 -42 45 35 62 23 40 -29 -15 -35 -14 -37 9 -52 23 -15 27 -15 60 5 34
20 35 20 35 1 0 -25 17 -35 35 -20 19 16 20 -5 1 -38 -13 -25 -10 -82 5 -82
11 0 48 20 72 39 28 23 32 4 9 -44 -29 -61 -28 -68 9 -60 28 6 30 5 24 -14 -8
-26 19 -39 46 -23 27 17 39 15 39 -7 0 -11 4 -22 10 -26 6 -4 5 -15 -2 -30
-15 -34 -4 -59 21 -45 33 17 44 12 27 -12 -24 -34 -19 -41 24 -34 38 6 40 5
30 -13 -5 -11 -10 -22 -10 -25 0 -8 39 -27 68 -32 22 -4 51 -29 52 -44 0 -3
-14 -20 -30 -39 -42 -47 -39 -54 23 -47 46 6 56 4 71 -13 11 -12 16 -29 13
-40 -4 -15 4 -25 29 -40 33 -20 34 -22 21 -48 -7 -16 -12 -35 -10 -43 2 -8 -8
-27 -22 -43 -14 -15 -24 -31 -21 -36 3 -5 31 -7 61 -4 63 6 67 0 35 -62 l-21
-40 26 -22 c29 -25 31 -36 10 -53 -24 -20 -18 -38 15 -45 37 -8 37 -18 5 -57
-14 -17 -24 -35 -22 -41 5 -16 27 -21 27 -6 0 7 12 25 26 40 31 33 27 73 -8
82 -21 6 -21 7 -3 27 18 19 18 21 -1 43 -10 12 -25 26 -32 30 -10 7 -8 18 11
51 17 31 21 49 15 65 -7 21 -13 22 -54 17 l-47 -5 21 22 c14 15 18 27 12 37
-5 9 -4 23 5 39 15 30 4 62 -28 77 -12 5 -21 16 -19 25 1 9 -11 31 -28 49 -26
27 -34 31 -62 25 l-33 -7 21 23 c12 13 24 29 28 36 8 15 -50 73 -74 73 -10 0
-26 3 -34 6 -15 6 -14 10 4 41 11 19 20 36 20 39 0 8 -42 4 -62 -7 l-21 -12
21 37 c12 21 22 39 22 42 0 8 -39 4 -44 -5 -3 -5 -16 -11 -28 -13 -20 -4 -23
0 -24 26 0 17 -3 42 -7 56 -3 14 -6 28 -6 32 -1 4 -13 3 -27 -2 -38 -15 -45
-12 -38 15 7 27 -4 32 -37 15 -23 -13 -23 -12 -4 33 19 47 20 87 0 87 -8 0
-31 -11 -51 -25 -20 -14 -40 -22 -45 -20 -4 3 1 24 11 48 28 60 26 71 -10 64
-25 -6 -30 -3 -30 13 0 25 -20 25 -65 0 -20 -11 -38 -20 -42 -20 -6 0 1 44 12
71 3 9 -3 26 -14 40 -19 24 -19 24 -40 5 -26 -23 -35 -17 -23 15 9 24 -3 79
-17 79 -3 0 -23 -11 -44 -25 -20 -14 -38 -21 -38 -15 -1 5 -3 19 -4 30 -1 11
-3 27 -4 35 -2 21 -50 19 -85 -4 l-30 -20 -23 32 c-17 23 -23 44 -23 84 0 29
-4 53 -9 53 -4 0 -25 -13 -46 -30 -46 -37 -65 -38 -65 -5 0 22 -4 25 -27 23
-24 -3 -28 2 -38 37 -10 34 -16 40 -41 43 -19 2 -37 -4 -52 -18 -12 -11 -22
-19 -23 -18 0 2 -3 26 -6 53 -5 57 -25 85 -60 85 -12 0 -23 4 -23 10 0 19 -48
42 -67 32 -13 -8 -22 -7 -34 4 -21 19 -90 9 -119 -18 l-21 -20 3 42 c2 40 6
45 110 127 59 48 108 92 108 99 0 11 -101 11 -172 -1 -40 -7 -34 9 17 46 25
18 44 37 41 43 -2 6 -7 10 -12 10 -5 -1 -35 -5 -67 -8 l-57 -7 17 35 c20 43
15 50 -22 36 -15 -6 -29 -9 -31 -7 -3 3 82 124 96 137 3 3 22 29 43 58 37 52
45 72 28 72 -7 0 -57 -35 -71 -50 -17 -18 -110 -90 -110 -85 0 3 7 17 16 30
27 42 7 45 -66 9 -39 -19 -75 -34 -80 -34 -8 0 21 70 83 197 23 48 25 63 6 63
-4 0 -51 -55 -104 -122 -54 -68 -100 -124 -104 -126 -3 -1 -17 26 -30 60 -39
100 -44 101 -67 11 -23 -92 -23 -91 -47 -48 -27 48 -48 51 -59 8 -5 -18 -10
-33 -13 -33 -4 0 -60 107 -109 208 -29 60 -39 71 -50 54z"/>
<path d="M2480 4379 c-68 -30 -127 -94 -149 -159 -3 -8 -5 -46 -5 -85 -1 -108
43 -177 147 -231 l39 -21 -2 -114 c-2 -112 -7 -299 -9 -329 -1 -11 -24 -21
-77 -34 -322 -75 -751 -273 -1089 -504 -100 -68 -222 -158 -235 -172 -3 -3
-36 -31 -75 -62 -38 -31 -86 -73 -105 -92 l-34 -36 23 -109 c12 -61 37 -173
55 -251 22 -95 29 -143 22 -145 -6 -2 -115 -6 -242 -9 l-230 -5 -12 33 c-19
53 -77 111 -134 136 -172 75 -359 -40 -365 -224 0 -32 5 -76 13 -98 49 -138
213 -209 348 -150 59 27 119 87 136 136 l12 36 241 -5 c278 -7 280 -7 283 -26
6 -33 76 -351 94 -424 10 -44 22 -96 25 -115 22 -129 61 -262 83 -287 9 -11
69 -54 132 -95 63 -41 162 -105 220 -143 151 -98 487 -318 714 -467 49 -32 93
-58 97 -58 5 0 9 -4 9 -8 0 -17 79 -45 109 -39 16 3 79 39 140 79 60 40 177
116 258 169 849 554 853 556 867 592 11 26 120 493 132 562 8 51 54 238 59
244 4 3 37 7 73 7 37 1 178 5 314 8 l246 6 11 -31 c44 -127 215 -198 342 -142
101 45 154 127 154 239 0 107 -51 189 -143 232 -89 40 -182 34 -257 -18 -50
-35 -67 -56 -91 -108 l-18 -42 -160 5 c-89 2 -221 5 -294 7 -73 1 -135 5 -138
9 -2 5 19 110 47 236 28 125 51 238 51 250 0 22 -65 117 -161 233 -25 30 -106
116 -181 191 -252 254 -508 416 -780 495 -92 27 -168 33 -271 21 l-66 -8 -2
158 c-1 87 -4 182 -5 211 -3 53 -3 53 38 74 95 47 147 125 152 226 4 105 -48
197 -141 244 -57 30 -157 33 -215 7z"/>
</g>
</svg>
